<?xml version="1.0" encoding="utf-8"?>
<!-- Generator: Adobe Illustrator 21.0.2, SVG Export Plug-In . SVG Version: 6.00 Build 0)  -->
<svg version="1.1" id="Слой_1" xmlns="http://www.w3.org/2000/svg" xmlns:xlink="http://www.w3.org/1999/xlink" x="0px" y="0px"
	 viewBox="0 0 898 324" style="enable-background:new 0 0 898 324;" xml:space="preserve">
<style type="text/css">
	.st0{fill:#AFBED2;}
</style>
<path class="st0" d="M478.3,101.6c0,8.9-7.2,16.1-16.1,16.1s-16.1-7.2-16.1-16.1s6.9-16.1,16.1-16.1
	C471.4,85.8,478.3,93,478.3,101.6z M412.1,134v4c0,0-7.7-9.9-24-9.9c-26.9,0-47.9,20.5-47.9,48.9c0,28.2,20.7,48.9,47.9,48.9
	c16.5,0,24-10.1,24-10.1v4.2c0,2,1.5,3.5,3.5,3.5h20v-92.9h-20C413.6,130.5,412.1,132.3,412.1,134L412.1,134z M412.1,193.5
	c-3.7,5.4-11.1,10.1-20,10.1c-15.8,0-27.9-9.9-27.9-26.7c0-16.8,12.1-26.7,27.9-26.7c8.6,0,16.5,4.9,20,10.1V193.5z M450.4,130.5
	h23.7v92.9h-23.7V130.5L450.4,130.5z M804.5,128.1c-16.3,0-24,9.9-24,9.9V85.8h-23.7v137.6h20c2,0,3.5-1.7,3.5-3.5v-4.2
	c0,0,7.7,10.1,24,10.1c26.9,0,47.9-20.7,47.9-48.9S831.2,128.1,804.5,128.1L804.5,128.1z M800.6,203.4c-9.1,0-16.3-4.7-20-10.1
	v-33.1c3.7-4.9,11.6-10.1,20-10.1c15.8,0,27.9,9.9,27.9,26.7S816.4,203.4,800.6,203.4z M744.5,168.3v55.3h-23.7V171
	c0-15.3-4.9-21.5-18.3-21.5c-7.2,0-14.6,3.7-19.3,9.1v64.7h-23.7v-92.9h18.8c2,0,3.5,1.7,3.5,3.5v4c6.9-7.2,16.1-9.9,25.2-9.9
	c10.4,0,19,3,25.9,8.9C741.3,143.9,744.5,152.8,744.5,168.3L744.5,168.3z M602,128.1c-16.3,0-24,9.9-24,9.9V85.8h-23.7v137.6h20
	c2,0,3.5-1.7,3.5-3.5v-4.2c0,0,7.7,10.1,24,10.1c26.9,0,47.9-20.7,47.9-48.9C649.9,148.8,628.9,128.1,602,128.1L602,128.1z
	 M598.1,203.4c-9.1,0-16.3-4.7-20-10.1v-33.1c3.7-4.9,11.6-10.1,20-10.1c15.8,0,27.9,9.9,27.9,26.7S613.9,203.4,598.1,203.4z
	 M533.9,128.1c7.2,0,10.9,1.2,10.9,1.2v22c0,0-19.8-6.7-32.1,7.4v65h-23.7v-93.1h20c2,0,3.5,1.7,3.5,3.5v4
	C516.8,132.7,526.4,128.1,533.9,128.1L533.9,128.1z M287.6,215c-1.2-3-2.5-6.2-3.7-8.9c-2-4.4-4-8.6-5.7-12.6l-0.2-0.2
	c-17-37-35.3-74.6-54.6-111.6l-0.7-1.5c-2-3.8-4-7.7-5.9-11.6c-2.5-4.4-4.9-9.1-8.9-13.6c-7.9-9.9-19.3-15.3-31.4-15.3
	c-12.4,0-23.5,5.4-31.6,14.8c-3.7,4.4-6.4,9.1-8.9,13.6c-1.9,3.9-3.9,7.8-5.9,11.6l-0.7,1.5c-19,37-37.5,74.6-54.6,111.6l-0.2,0.5
	c-1.7,4-3.7,8.2-5.7,12.6c-1.2,2.7-2.5,5.7-3.7,8.9c-3.2,9.1-4.2,17.8-3,26.7c2.7,18.5,15.1,34.1,32.1,41c6.4,2.7,13.1,4,20,4
	c2,0,4.4-0.2,6.4-0.5c8.2-1,16.5-3.7,24.7-8.4c10.1-5.7,19.8-13.8,30.6-25.7c10.9,11.9,20.7,20,30.6,25.7c8.2,4.7,16.5,7.4,24.7,8.4
	c2,0.3,4.4,0.5,6.4,0.5c6.9,0,13.8-1.2,20-4c17.3-6.9,29.4-22.7,32.1-41C291.8,232.8,290.8,224.1,287.6,215L287.6,215z M176.2,227.8
	c-13.3-16.8-22-32.6-24.9-45.9c-1.2-5.7-1.5-10.6-0.7-15.1c0.5-4,2-7.4,4-10.4c4.7-6.7,12.6-10.9,21.7-10.9c9.1,0,17.3,4,21.7,10.9
	c2,3,3.5,6.4,4,10.4c0.7,4.4,0.5,9.6-0.7,15.1C198.2,195,189.6,210.8,176.2,227.8z M274.8,239.4c-1.7,12.8-10.4,24-22.5,28.9
	c-5.9,2.5-12.4,3.2-18.8,2.5c-6.2-0.7-12.4-2.7-18.8-6.4c-8.9-4.9-17.8-12.6-28.2-24c16.3-20,26.2-38.3,29.9-54.6
	c1.7-7.7,2-14.6,1.2-21c-1-6.2-3.2-11.9-6.7-16.8c-7.7-11.1-20.5-17.5-34.8-17.5s-27.2,6.7-34.8,17.5c-3.5,4.9-5.7,10.6-6.7,16.8
	c-1,6.4-0.7,13.6,1.2,21c3.7,16.3,13.8,34.8,29.9,54.8c-10.1,11.4-19.3,19-28.2,24c-6.4,3.7-12.6,5.7-18.8,6.4
	c-6.7,0.7-13.1-0.2-18.8-2.5c-12.1-4.9-20.7-16.1-22.5-28.9c-0.7-6.2-0.2-12.3,2.2-19.3c0.7-2.5,2-4.9,3.2-7.9
	c1.7-4,3.7-8.2,5.7-12.4l0.2-0.5c17-36.8,35.3-74.3,54.3-110.9l0.7-1.5c2-3.7,4-7.7,5.9-11.4c2-4,4.2-7.7,6.9-10.9
	c5.2-5.9,12.1-9.1,19.8-9.1c7.7,0,14.6,3.2,19.8,9.1c2.7,3.2,4.9,6.9,6.9,10.9c2,3.7,4,7.7,5.9,11.4l0.7,1.5
	c18.7,36.7,36.8,73.8,54.1,111.1v0.2c2,4,3.7,8.4,5.7,12.4c1.2,3,2.5,5.4,3.2,7.9C275,226.8,275.8,233,274.8,239.4L274.8,239.4z"/>
</svg>
