<?xml version="1.0" encoding="utf-8"?>
<!-- Generator: Adobe Illustrator 21.0.2, SVG Export Plug-In . SVG Version: 6.00 Build 0)  -->
<svg version="1.1" id="Слой_1" xmlns="http://www.w3.org/2000/svg" xmlns:xlink="http://www.w3.org/1999/xlink" x="0px" y="0px"
	 viewBox="0 0 489.6 438" style="enable-background:new 0 0 489.6 438;" xml:space="preserve">
<g>
	<g>
		<path d="M59.3,204.5V427h195.6V262.6h103.4V427h70.1V204.5L243.9,66.7L59.3,204.5z M200.6,349.2h-86.7v-86.7h86.7L200.6,349.2
			L200.6,349.2z M200.6,349.2"/>
		<path d="M484.6,176.6l-55.2-36.8V38h-64.7v53.2L243.1,0L5,176.6c-5.5,4.2-6.6,12.1-2.4,17.6c4.2,5.5,12.1,6.6,17.6,2.4L243.2,31.5
			l226.3,165.2c2.3,1.7,4.9,2.5,7.5,2.5c3.8,0,7.6-1.7,10.1-5C491.2,188.6,490.1,180.7,484.6,176.6L484.6,176.6z M484.6,176.6"/>
	</g>
</g>
</svg>
