<?xml version="1.0" encoding="UTF-8"?>
<svg width="140px" height="56px" viewBox="0 0 140 56" version="1.1" xmlns="http://www.w3.org/2000/svg" xmlns:xlink="http://www.w3.org/1999/xlink">
    <!-- Generator: Sketch 46.1 (44463) - http://www.bohemiancoding.com/sketch -->
    <title>Logo</title>
    <desc>Created with Sketch.</desc>
    <defs>
        <linearGradient x1="139.622927%" y1="-26.3258805%" x2="139.622927%" y2="100%" id="linearGradient-1">
            <stop stop-color="#FFFFFF" offset="0%"></stop>
            <stop stop-color="#FFFFFF" stop-opacity="0" offset="100%"></stop>
        </linearGradient>
    </defs>
    <g id="Page-1" stroke="none" stroke-width="1" fill="none" fill-rule="evenodd">
        <g id="Logo" fill-rule="nonzero">
            <g id="Transparent" opacity="0.5" fill="url(#linearGradient-1)">
                <path d="M0.00332780542,17.5597981 L0.00332780542,12.2860785 L21.3554561,0.0134056075 L42.7891542,12.1800598 L42.7891542,39.4656673 L32.8314317,39.4656673 L32.8314317,34.9972561 L38.1375788,34.9972561 L38.1375788,14.7393121 L21.4217026,5.22454579 L0.00332780542,17.5597981 Z M17.8905837,39.4701383 L13.2465926,39.4701383 L13.2465926,19.6264 L29.5495887,19.600157 L29.5495887,39.4693159 L24.9334583,39.4693159 L24.9334583,24.1183626 L17.8905837,24.0869607 L17.8905837,39.4701383 Z M4.63090437,34.9909458 L10.0481846,34.9909458 L10.0481846,39.4584598 L0.0119878386,39.4584598 L0.0119878386,19.6259364 L4.63090437,19.6024598 L4.63090437,34.9909458 Z" id="Combined-Shape"></path>
                <path d="M132.857833,16.7417572 C131.89393,15.9137946 130.515058,15.4997385 128.720984,15.4994395 C126.95361,15.4992152 125.641526,15.8482993 124.7845,16.546617 C123.927396,17.24486 123.499038,18.176075 123.498806,19.3401871 C123.498574,19.9869909 123.612338,20.530318 123.839945,20.9699441 C124.067396,21.4097946 124.442278,21.7914769 124.964433,22.1149909 C125.486357,22.4382058 126.169176,22.7164862 127.012659,22.9493834 C127.856142,23.1825049 128.880254,23.3894582 130.085229,23.5708413 C131.69194,23.8297572 133.110901,24.1661311 134.342731,24.5801871 C135.574483,24.9942432 136.605174,25.5182806 137.435113,26.1524488 C138.265207,26.786318 138.887584,27.5494582 139.302399,28.4420189 C139.717523,29.3345797 139.924776,30.4017199 139.924621,31.6432899 C139.924389,32.8850843 139.66304,34.0232526 139.140884,35.0579441 C138.618496,36.0926357 137.888546,36.9721124 136.951343,37.6963741 C136.014063,38.4204114 134.882609,38.983103 133.556982,39.3838507 C132.231587,39.7845984 130.752184,39.9848974 129.118618,39.9844488 C127.378021,39.9842245 125.83183,39.7641871 124.479735,39.3241124 C123.127485,38.8842619 121.976296,38.2954021 121.025627,37.5580563 C120.075345,36.8207105 119.34555,35.9540937 118.837015,34.9580563 C118.328402,33.9620189 118.047551,32.9078133 117.993997,31.7953647 L122.693477,31.0975703 C122.747032,31.7700937 122.90754,32.4233273 123.175235,33.0571965 C123.443007,33.6911404 123.837778,34.2473273 124.359934,34.7260563 C124.881857,35.2044862 125.531166,35.5861684 126.307783,35.8710283 C127.084168,36.1556638 128.021371,36.2980189 129.119237,36.2982432 C130.913311,36.2984675 132.346048,35.9300937 133.417291,35.1929722 C134.488226,34.4557759 135.023925,33.3629909 135.024157,31.9141684 C135.024389,31.2933834 134.910625,30.7500563 134.683173,30.2844862 C134.455644,29.8188413 134.087418,29.4112152 133.578806,29.0619815 C133.069961,28.7126731 132.400763,28.4151778 131.570591,28.1691217 C130.74073,27.9233647 129.72304,27.7097572 128.518297,27.5285984 C127.018618,27.3214208 125.659867,27.0301311 124.441581,26.6548787 C123.223295,26.2796264 122.185638,25.7878133 121.328767,25.1798881 C120.472206,24.5717385 119.809431,23.8215329 119.341061,22.9288974 C118.872615,22.0363367 118.63843,20.9692713 118.638662,19.7274769 C118.638894,18.4598133 118.8867,17.3345797 119.382388,16.3516264 C119.877844,15.3686731 120.58094,14.5411591 121.491288,13.8686357 C122.401868,13.1961124 123.479768,12.6854582 124.724909,12.3363741 C125.970127,11.9873647 127.342421,11.81286 128.842023,11.8130843 C131.707109,11.8134582 134.07016,12.4540563 135.930868,13.7349535 C137.791808,15.0157012 138.949652,16.8072526 139.404478,19.1097572 L134.624511,20.15686 C134.410525,18.7080376 133.821504,17.5697199 132.857833,16.7417572 L132.857833,16.7417572 Z M105.383162,24.1103554 C105.142244,23.4636264 104.908137,22.810318 104.680608,22.1507292 L104.038187,20.288075 C103.83759,19.7059441 103.65696,19.188561 103.496219,18.7358507 C103.335633,18.2831404 103.215213,17.9274021 103.134959,17.668561 L103.054549,17.668561 C102.974063,17.9271778 102.860376,18.2829161 102.713024,18.7356264 C102.565749,19.1883367 102.391542,19.7057199 102.190636,20.2876264 L101.547595,22.1502806 C101.320066,22.8099441 101.08565,23.4629535 100.8445,24.1096825 C100.308568,25.6359628 99.7326258,27.2785797 99.11644,29.0375329 L107.149608,29.0386544 C106.507264,27.2794769 105.918397,25.6366357 105.383162,24.1103554 L105.383162,24.1103554 Z M110.923571,39.4773086 L108.434373,32.6475516 L97.8305141,32.6459815 L95.3392261,39.4750656 L90.6801437,39.4743927 L100.8866,12.313346 L105.706269,12.3141684 L115.863969,39.4782058 L110.923571,39.4773086 Z M89.194859,35.7102806 L89.1940851,39.4741684 L72.0834384,39.4715516 L72.0878496,12.3090843 L76.8273411,12.3097572 L76.8236263,35.7082619 L89.194859,35.7102806 Z M53.6915865,16.0703554 L53.6901935,23.5981311 L65.9006081,23.5999255 L65.8999889,27.3640376 L53.6897291,27.3620189 L53.6883361,35.7049722 L67.0233941,35.7069909 L67.0226976,39.4708787 L48.9883914,39.4681871 L48.9927253,12.3057199 L66.7859591,12.3084114 L66.7854947,16.0722993 L53.6915865,16.0703554 Z" id="Fill-1"></path>
            </g>
            <g id="White" transform="translate(14.000000, 24.000000)" fill="#FFFFFF">
                <path d="M0.00266224433,14.0478385 L0.00266224433,9.8288628 L17.0843648,0.010724486 L34.2313234,9.74404785 L34.2313234,31.5725338 L26.2651454,31.5725338 L26.2651454,27.9978049 L30.510063,27.9978049 L30.510063,11.7914497 L17.1373621,4.17963664 L0.00266224433,14.0478385 Z M14.312467,31.5761107 L10.5972741,31.5761107 L10.5972741,15.70112 L23.639671,15.6801256 L23.639671,31.5754527 L19.9467666,31.5754527 L19.9467666,19.2946901 L14.312467,19.2695686 L14.312467,31.5761107 Z M3.70472349,27.9927566 L8.03854771,27.9927566 L8.03854771,31.5667679 L0.00959027087,31.5667679 L0.00959027087,15.7007492 L3.70472349,15.6819679 L3.70472349,27.9927566 Z" id="Combined-Shape"></path>
                <path d="M106.286266,13.3934058 C105.515144,12.7310357 104.412046,12.3997908 102.976787,12.3995516 C101.562888,12.3993721 100.513221,12.6786394 99.8275998,13.2372936 C99.1419171,13.795888 98.7992305,14.54086 98.7990448,15.4721497 C98.798859,15.9895927 98.8898706,16.4242544 99.0719558,16.7759553 C99.2539171,17.1278357 99.553822,17.4331815 99.9715467,17.6919927 C100.389086,17.9505647 100.935341,18.173189 101.610127,18.3595067 C102.284913,18.5460039 103.104203,18.7115665 104.068184,18.8566731 C105.353552,19.0638058 106.488721,19.3329049 107.474185,19.6641497 C108.459587,19.9953946 109.284139,20.4146245 109.948091,20.9219591 C110.612166,21.4290544 111.110067,22.0395665 111.441919,22.7536151 C111.774019,23.4676637 111.939821,24.3213759 111.939697,25.314632 C111.939511,26.3080675 111.730432,27.218602 111.312708,28.0463553 C110.894797,28.8741086 110.310837,29.5776899 109.561075,30.1570992 C108.81125,30.7363292 107.906087,31.1864824 106.845585,31.5070806 C105.785269,31.8276787 104.601747,31.9879179 103.294894,31.9875591 C101.902417,31.9873796 100.665464,31.8113497 99.5837877,31.4592899 C98.5019878,31.1074095 97.581037,30.6363217 96.8205019,30.046445 C96.0602764,29.4565684 95.47644,28.7632749 95.0696119,27.966445 C94.6627219,27.1696151 94.4380409,26.3262506 94.3951973,25.4362918 L98.1547816,24.8780563 C98.1976252,25.4160749 98.3260321,25.9386619 98.5401879,26.4457572 C98.7544057,26.9529123 99.0702222,27.3978619 99.4879469,27.780845 C99.9054859,28.163589 100.424933,28.4689348 101.046227,28.6968226 C101.667334,28.924531 102.417097,29.0384151 103.29539,29.0385946 C104.730649,29.038774 105.876838,28.7440749 106.733833,28.1543777 C107.59058,27.5646207 108.01914,26.6903927 108.019326,25.5313348 C108.019511,25.0347067 107.9285,24.600045 107.746538,24.227589 C107.564515,23.8550731 107.269935,23.5289721 106.863045,23.2495852 C106.455969,22.9701385 105.92061,22.7321422 105.256473,22.5352974 C104.592584,22.3386918 103.778432,22.1678058 102.814638,22.0228787 C101.614894,21.8571366 100.527894,21.6241049 99.5532648,21.323903 C98.5786357,21.0237011 97.7485108,20.6302506 97.0630138,20.1439105 C96.3777645,19.6573908 95.8475445,19.0572263 95.4728491,18.3431179 C95.0980918,17.6290693 94.9107441,16.775417 94.9109298,15.7819815 C94.9111155,14.7678506 95.1093599,13.8676637 95.5059104,13.0813011 C95.9022753,12.2949385 96.4647518,11.6329273 97.1930304,11.0949086 C97.9214947,10.5568899 98.7838143,10.1483665 99.779927,9.86909924 C100.776102,9.58989177 101.873937,9.45028803 103.073619,9.45046747 C105.365687,9.45076653 107.256128,9.96324504 108.744694,10.9879628 C110.233446,12.0125609 111.159721,13.445802 111.523582,15.2878058 L107.699609,16.125488 C107.52842,14.9664301 107.057203,14.0557759 106.286266,13.3934058 L106.286266,13.3934058 Z M84.3065296,19.2882843 C84.1137955,18.7709011 83.9265097,18.2482544 83.7444865,17.7205834 L83.2305495,16.23046 C83.0700719,15.7647553 82.9255677,15.3508488 82.7969751,14.9886806 C82.6685064,14.6265123 82.5721703,14.3419217 82.5079668,14.1348488 L82.4436396,14.1348488 C82.3792504,14.3417422 82.2883007,14.6263329 82.170419,14.9885011 C82.0525992,15.3506693 81.9132338,15.7645759 81.7525086,16.2301011 L81.2380763,17.7202245 C81.0560531,18.2479553 80.8685196,18.7703628 80.6755998,19.287746 C80.2468546,20.5087703 79.7861006,21.8228637 79.293152,23.2300263 L85.719686,23.2309235 C85.2058109,21.8235815 84.7347175,20.5093086 84.3065296,19.2882843 L84.3065296,19.2882843 Z M88.7388568,31.5818469 L86.7474981,26.1180413 L78.2644113,26.1167852 L76.2713809,31.5800525 L72.544115,31.5795142 L80.7092803,9.85067681 L84.5650149,9.85133476 L92.6911752,31.5825647 L88.7388568,31.5818469 Z M71.3558872,28.5682245 L71.3552681,31.5793348 L57.6667507,31.5772413 L57.6702797,9.84726747 L61.4618729,9.84780579 L61.4589011,28.5666095 L71.3558872,28.5682245 Z M42.9532692,12.8562843 L42.9521548,18.8785049 L52.7204865,18.8799404 L52.7199912,21.8912301 L42.9517833,21.8896151 L42.9506689,28.5639777 L53.6187153,28.5655927 L53.6181581,31.576703 L39.1907131,31.5745497 L39.1941802,9.84457588 L53.4287673,9.84672915 L53.4283958,12.8578394 L42.9532692,12.8562843 Z" id="Fill-1"></path>
            </g>
        </g>
    </g>
</svg>