<?xml version="1.0" encoding="utf-8"?>
<!-- Generator: Adobe Illustrator 21.0.2, SVG Export Plug-In . SVG Version: 6.00 Build 0)  -->
<svg version="1.1" id="_x31_" xmlns="http://www.w3.org/2000/svg" xmlns:xlink="http://www.w3.org/1999/xlink" x="0px" y="0px"
	 viewBox="0 0 17.4 18.3" style="enable-background:new 0 0 17.4 18.3;" xml:space="preserve">
<style type="text/css">
	.st0{fill-rule:evenodd;clip-rule:evenodd;fill:#0DD0E9;}
	.st1{fill:#FFFFFF;}
</style>
<g>
	
		<image style="overflow:visible;opacity:0.6;" width="76" height="76" xlink:href="2960B986.png"  transform="matrix(1 0 0 1 -92.8333 -3.8377)">
	</image>
	<g>
		<path class="st0" d="M-67.5,12.2h24.9c5,0,9.1,4.1,9.1,9.1v24.9c0,5-4.1,9.1-9.1,9.1h-24.9c-5,0-9.1-4.1-9.1-9.1V21.3
			C-76.6,16.3-72.5,12.2-67.5,12.2z"/>
	</g>
</g>
<g id="mail">
	<g>
		<path class="st1" d="M17.2,0.1c-0.1-0.1-0.3-0.1-0.4,0L0.2,9.9C0.1,10,0,10.1,0,10.3c0,0.2,0.1,0.3,0.3,0.3l4.2,1.2
			c0.1,0,0.3,0,0.4-0.1l6.7-5.5l-4.7,6c-0.1,0.1-0.1,0.2-0.1,0.3v5.4c0,0.2,0.1,0.3,0.3,0.4c0,0,0.1,0,0.1,0c0.1,0,0.3-0.1,0.3-0.2
			l2.9-4.6l4.3,1.2c0.1,0,0.2,0,0.3-0.1c0.1-0.1,0.2-0.2,0.2-0.3l2.1-13.9C17.4,0.3,17.4,0.2,17.2,0.1L17.2,0.1z M17.2,0.1"/>
	</g>
</g>
</svg>
