<?xml version="1.0" encoding="utf-8"?>
<!-- Generator: Adobe Illustrator 21.0.2, SVG Export Plug-In . SVG Version: 6.00 Build 0)  -->
<svg version="1.1" id="Слой_1" xmlns="http://www.w3.org/2000/svg" xmlns:xlink="http://www.w3.org/1999/xlink" x="0px" y="0px"
	 viewBox="0 0 16 16" style="enable-background:new 0 0 16 16;" xml:space="preserve">
<style type="text/css">
	.st0{fill:#FFFFFF;}
</style>
<g id="mail">
	<g>
		<path class="st0" d="M14.2,0.7c-0.1-0.1-0.2-0.1-0.3,0L0.8,8.5C0.7,8.5,0.6,8.6,0.6,8.8C0.6,8.9,0.7,9,0.9,9L4.2,10
			c0.1,0,0.2,0,0.3-0.1l5.3-4.3l-3.7,4.7C6,10.4,6,10.4,6,10.5v4.2C6,14.9,6.1,15,6.2,15c0,0,0.1,0,0.1,0c0.1,0,0.2-0.1,0.3-0.1
			l2.3-3.6l3.4,0.9c0.1,0,0.2,0,0.3,0c0.1,0,0.1-0.1,0.1-0.2L14.3,1C14.3,0.9,14.3,0.8,14.2,0.7L14.2,0.7z M14.2,0.7"/>
	</g>
</g>
</svg>
