<?xml version="1.0" encoding="utf-8"?>
<!-- Generator: Adobe Illustrator 21.0.2, SVG Export Plug-In . SVG Version: 6.00 Build 0)  -->
<svg version="1.1" id="Слой_1" xmlns="http://www.w3.org/2000/svg" xmlns:xlink="http://www.w3.org/1999/xlink" x="0px" y="0px"
	 viewBox="0 0 16 16" style="enable-background:new 0 0 16 16;" xml:space="preserve">
<style type="text/css">
	.st0{fill:#FFFFFF;}
</style>
<g id="phone">
	<path class="st0" d="M3.8,7.1c1.1,2.2,3,4,5.1,5.1l1.7-1.7c0.2-0.2,0.5-0.3,0.8-0.2c0.9,0.3,1.8,0.5,2.8,0.5c0.5,0,0.8,0.3,0.8,0.8
		v2.6c0,0.5-0.3,0.8-0.8,0.8C6.9,15,1,9.1,1,1.8C1,1.3,1.3,1,1.8,1h2.7C5,1,5.3,1.3,5.3,1.8c0,0.9,0.2,1.9,0.5,2.8
		c0.1,0.2,0,0.5-0.2,0.8L3.8,7.1z M3.8,7.1"/>
</g>
</svg>
