<?xml version="1.0" encoding="UTF-8"?>
<svg width="1809px" height="535px" viewBox="0 0 1809 535" version="1.1" xmlns="http://www.w3.org/2000/svg" xmlns:xlink="http://www.w3.org/1999/xlink">
    <!-- Generator: Sketch 46.1 (44463) - http://www.bohemiancoding.com/sketch -->
    <title>Black</title>
    <desc>Created with Sketch.</desc>
    <defs></defs>
    <g id="Page-1" stroke="none" stroke-width="1" fill="none" fill-rule="evenodd">
        <g id="Black">
            <path d="M0.043,234.8623 L0.043,164.3263 L275.943,0.1793 L552.897,162.9083 L552.897,527.8533 L424.229,527.8533 L424.229,468.0883 L492.792,468.0883 L492.792,197.1383 L276.799,69.8783 L0.043,234.8623 Z M231.1719,527.9131 L171.1649,527.9131 L171.1649,262.5031 L381.8229,262.1521 L381.8229,527.9021 L322.1759,527.9021 L322.1759,322.5831 L231.1719,322.1631 L231.1719,527.9131 Z M59.8379,468.0039 L129.8369,468.0039 L129.8369,527.7569 L0.1549,527.7569 L0.1549,262.4969 L59.8379,262.1829 L59.8379,468.0039 Z" id="Combined-Shape" fill="#000000"></path>
            <path d="M1716.713,223.921003 C1704.258,212.847003 1686.441,207.309003 1663.259,207.305003 C1640.422,207.302003 1623.468,211.971003 1612.394,221.311003 C1601.319,230.650003 1595.784,243.105003 1595.781,258.675003 C1595.778,267.326003 1597.248,274.593003 1600.189,280.473003 C1603.128,286.356003 1607.972,291.461003 1614.719,295.788003 C1621.463,300.111003 1630.286,303.833003 1641.185,306.948003 C1652.084,310.066003 1665.317,312.834003 1680.887,315.260003 C1701.648,318.723003 1719.983,323.222003 1735.9,328.760003 C1751.816,334.298003 1765.134,341.307003 1775.858,349.789003 C1786.584,358.267003 1794.626,368.474003 1799.986,380.412003 C1805.35,392.350003 1808.028,406.623003 1808.026,423.229003 C1808.023,439.838003 1804.646,455.061003 1797.899,468.900003 C1791.149,482.739003 1781.717,494.502003 1769.607,504.189003 C1757.496,513.873003 1742.876,521.399003 1725.747,526.759003 C1708.621,532.119003 1689.505,534.798003 1668.397,534.792003 C1645.906,534.789003 1625.927,531.846003 1608.456,525.960003 C1590.983,520.077003 1576.108,512.201003 1563.824,502.339003 C1551.545,492.477003 1542.115,480.886003 1535.544,467.564003 C1528.972,454.242003 1525.343,440.142003 1524.651,425.263003 L1585.375,415.930003 C1586.067,424.925003 1588.141,433.662003 1591.6,442.140003 C1595.06,450.619003 1600.161,458.058003 1606.908,464.461003 C1613.652,470.860003 1622.042,475.965003 1632.077,479.775003 C1642.109,483.582003 1654.219,485.486003 1668.405,485.489003 C1691.587,485.492003 1710.1,480.565003 1723.942,470.706003 C1737.78,460.846003 1744.702,446.230003 1744.705,426.852003 C1744.708,418.549003 1743.238,411.282003 1740.299,405.055003 C1737.359,398.827003 1732.601,393.375003 1726.029,388.704003 C1719.454,384.032003 1710.807,380.053003 1700.08,376.762003 C1689.357,373.475003 1676.207,370.618003 1660.64,368.195003 C1641.262,365.424003 1623.705,361.528003 1607.963,356.509003 C1592.221,351.490003 1578.813,344.912003 1567.741,336.781003 C1556.673,328.647003 1548.109,318.613003 1542.057,306.674003 C1536.004,294.736003 1532.978,280.464003 1532.981,263.855003 C1532.984,246.900003 1536.186,231.850003 1542.591,218.703003 C1548.993,205.556003 1558.078,194.488003 1569.841,185.493003 C1581.607,176.498003 1595.535,169.668003 1611.624,164.999003 C1627.714,160.331003 1645.446,157.997003 1664.823,158.000003 C1701.844,158.005003 1732.378,166.573003 1756.421,183.705003 C1780.467,200.835003 1795.428,224.797003 1801.305,255.593003 L1739.541,269.598003 C1736.776,250.220003 1729.165,234.995003 1716.713,223.921003 L1716.713,223.921003 Z M1361.701,322.476003 C1358.588,313.826003 1355.563,305.088003 1352.623,296.266003 L1344.322,271.353003 C1341.73,263.567003 1339.396,256.647003 1337.319,250.592003 C1335.244,244.537003 1333.688,239.779003 1332.651,236.317003 L1331.612,236.317003 C1330.572,239.776003 1329.103,244.534003 1327.199,250.589003 C1325.296,256.644003 1323.045,263.564003 1320.449,271.347003 L1312.14,296.260003 C1309.2,305.083003 1306.171,313.817003 1303.055,322.467003 C1296.13,342.881003 1288.688,364.851003 1280.726,388.377003 L1384.526,388.392003 C1376.226,364.863003 1368.617,342.890003 1361.701,322.476003 L1361.701,322.476003 Z M1433.291,528.009003 L1401.127,436.661003 L1264.11,436.640003 L1231.919,527.979003 L1171.717,527.970003 L1303.599,164.691003 L1365.876,164.702003 L1497.128,528.021003 L1433.291,528.009003 Z M1152.525,477.625003 L1152.515,527.967003 L931.421,527.932003 L931.478,164.634003 L992.719,164.643003 L992.671,477.598003 L1152.525,477.625003 Z M693.772,214.941003 L693.754,315.625003 L851.53,315.649003 L851.522,365.994003 L693.748,365.967003 L693.73,477.554003 L866.038,477.581003 L866.029,527.923003 L633,527.887003 L633.056,164.589003 L862.97,164.625003 L862.964,214.967003 L693.772,214.941003 Z" id="Fill-1" fill="#26264C"></path>
        </g>
    </g>
</svg>